<svg xmlns="http://www.w3.org/2000/svg" xmlns:xlink="http://www.w3.org/1999/xlink" width="200" zoomAndPan="magnify" viewBox="0 0 150 44.999999" height="60" preserveAspectRatio="xMidYMid meet" version="1.0"><defs><g/><clipPath id="8ceada22aa"><path d="M 3.1875 8.765625 L 30 8.765625 L 30 36.515625 L 3.1875 36.515625 Z M 3.1875 8.765625 " clip-rule="nonzero"/></clipPath><clipPath id="180372fc6d"><rect x="0" width="119" y="0" height="20"/></clipPath><clipPath id="201fc14f5e"><rect x="0" width="118" y="0" height="12"/></clipPath></defs><g clip-path="url(#8ceada22aa)"><path fill="#3f9aae" d="M 11.421875 8.769531 C 10.050781 8.769531 8.675781 10.828125 8.675781 12.886719 C 8.675781 14.945312 10.050781 17.003906 11.421875 17.003906 C 13.480469 17.003906 14.851562 14.945312 14.851562 12.886719 C 14.851562 10.828125 13.480469 8.769531 11.421875 8.769531 Z M 23.089844 23.183594 C 25.832031 24.554688 27.894531 26.613281 27.894531 29.359375 C 27.894531 33.476562 24.460938 36.222656 21.03125 36.222656 C 18.972656 36.222656 17.597656 35.535156 16.226562 34.847656 C 15.539062 35.535156 13.480469 36.222656 12.109375 36.222656 C 8.675781 36.222656 5.246094 33.476562 5.246094 29.359375 C 5.246094 26.613281 7.304688 23.867188 10.050781 23.183594 C 10.050781 19.75 13.480469 17.003906 16.910156 17.003906 C 20.34375 17.003906 23.089844 19.75 23.089844 23.183594 Z M 14.851562 21.808594 L 18.285156 21.808594 L 18.285156 25.242188 L 21.03125 25.242188 L 21.03125 28.671875 L 18.285156 28.671875 L 18.285156 31.417969 L 14.851562 31.417969 L 14.851562 28.671875 L 11.421875 28.671875 L 11.421875 25.242188 L 14.851562 25.242188 Z M 27.207031 15.632812 C 28.578125 15.632812 29.953125 17.691406 29.953125 19.75 C 29.953125 21.125 28.578125 23.183594 27.207031 23.183594 C 25.832031 23.183594 24.460938 21.125 24.460938 19.75 C 24.460938 17.691406 25.832031 15.632812 27.207031 15.632812 Z M 21.714844 8.769531 C 23.089844 8.769531 24.460938 10.828125 24.460938 12.886719 C 24.460938 14.945312 23.089844 17.003906 21.714844 17.003906 C 19.65625 17.003906 18.285156 14.945312 18.285156 12.886719 C 18.285156 10.828125 19.65625 8.769531 21.714844 8.769531 Z M 5.929688 15.632812 C 4.558594 15.632812 3.1875 17.691406 3.1875 19.75 C 3.1875 21.125 4.558594 23.183594 5.929688 23.183594 C 7.304688 23.183594 7.988281 21.125 7.988281 19.75 C 7.988281 17.691406 7.304688 15.632812 5.929688 15.632812 Z M 5.929688 15.632812 " fill-opacity="1" fill-rule="evenodd"/></g><g transform="matrix(1, 0, 0, 1, 31, 9)"><g clip-path="url(#180372fc6d)"><g fill="#ffffff" fill-opacity="1"><g transform="translate(1.122775, 13.840361)"><g><path d="M 10.109375 -12.015625 L 10.109375 -4.265625 C 10.109375 -2.785156 9.707031 -1.664062 8.90625 -0.90625 C 8.113281 -0.15625 6.945312 0.21875 5.40625 0.21875 C 3.875 0.21875 2.710938 -0.15625 1.921875 -0.90625 C 1.128906 -1.664062 0.734375 -2.785156 0.734375 -4.265625 L 0.734375 -12.015625 L 3.46875 -12.015625 L 3.46875 -5.0625 C 3.46875 -4.09375 3.617188 -3.414062 3.921875 -3.03125 C 4.234375 -2.65625 4.734375 -2.46875 5.421875 -2.46875 C 6.109375 -2.46875 6.601562 -2.65625 6.90625 -3.03125 C 7.21875 -3.414062 7.375 -4.09375 7.375 -5.0625 L 7.375 -12.015625 Z M 10.109375 -12.015625 "/></g></g></g><g fill="#ffffff" fill-opacity="1"><g transform="translate(11.952247, 13.840361)"><g><path d="M 1.3125 -7.46875 L 1.3125 -10.25 L 3.890625 -10.25 L 3.890625 -7.46875 L 5.46875 -7.46875 L 5.46875 -5.5 L 3.890625 -5.5 L 3.890625 -3.125 C 3.890625 -2.4375 4.082031 -2.09375 4.46875 -2.09375 C 4.5625 -2.09375 4.660156 -2.113281 4.765625 -2.15625 C 4.878906 -2.195312 4.96875 -2.234375 5.03125 -2.265625 L 5.109375 -2.328125 L 5.75 -0.25 C 5.195312 0.0625 4.566406 0.21875 3.859375 0.21875 C 3.367188 0.21875 2.945312 0.132812 2.59375 -0.03125 C 2.25 -0.207031 1.988281 -0.4375 1.8125 -0.71875 C 1.632812 -1.007812 1.503906 -1.3125 1.421875 -1.625 C 1.347656 -1.9375 1.3125 -2.273438 1.3125 -2.640625 L 1.3125 -5.5 L 0.234375 -5.5 L 0.234375 -7.46875 Z M 1.3125 -7.46875 "/></g></g></g><g fill="#ffffff" fill-opacity="1"><g transform="translate(17.614397, 13.840361)"><g><path d="M 1.3125 -7.46875 L 1.3125 -10.25 L 3.890625 -10.25 L 3.890625 -7.46875 L 5.46875 -7.46875 L 5.46875 -5.5 L 3.890625 -5.5 L 3.890625 -3.125 C 3.890625 -2.4375 4.082031 -2.09375 4.46875 -2.09375 C 4.5625 -2.09375 4.660156 -2.113281 4.765625 -2.15625 C 4.878906 -2.195312 4.96875 -2.234375 5.03125 -2.265625 L 5.109375 -2.328125 L 5.75 -0.25 C 5.195312 0.0625 4.566406 0.21875 3.859375 0.21875 C 3.367188 0.21875 2.945312 0.132812 2.59375 -0.03125 C 2.25 -0.207031 1.988281 -0.4375 1.8125 -0.71875 C 1.632812 -1.007812 1.503906 -1.3125 1.421875 -1.625 C 1.347656 -1.9375 1.3125 -2.273438 1.3125 -2.640625 L 1.3125 -5.5 L 0.234375 -5.5 L 0.234375 -7.46875 Z M 1.3125 -7.46875 "/></g></g></g><g fill="#ffffff" fill-opacity="1"><g transform="translate(23.334783, 13.840361)"><g><path d="M 1.375 -0.921875 C 0.675781 -1.679688 0.328125 -2.613281 0.328125 -3.71875 C 0.328125 -4.832031 0.675781 -5.769531 1.375 -6.53125 C 2.082031 -7.300781 2.972656 -7.6875 4.046875 -7.6875 C 5.035156 -7.6875 5.851562 -7.375 6.5 -6.75 L 6.5 -7.46875 L 9.078125 -7.46875 L 9.078125 0 L 6.53125 0 L 6.53125 -0.84375 L 6.5 -0.84375 C 5.851562 -0.132812 5.035156 0.21875 4.046875 0.21875 C 2.972656 0.21875 2.082031 -0.160156 1.375 -0.921875 Z M 3.578125 -4.984375 C 3.242188 -4.660156 3.078125 -4.238281 3.078125 -3.71875 C 3.078125 -3.207031 3.234375 -2.789062 3.546875 -2.46875 C 3.867188 -2.144531 4.289062 -1.984375 4.8125 -1.984375 C 5.320312 -1.984375 5.738281 -2.144531 6.0625 -2.46875 C 6.382812 -2.800781 6.546875 -3.222656 6.546875 -3.734375 C 6.546875 -4.242188 6.378906 -4.660156 6.046875 -4.984375 C 5.710938 -5.316406 5.300781 -5.484375 4.8125 -5.484375 C 4.320312 -5.484375 3.910156 -5.316406 3.578125 -4.984375 Z M 3.578125 -4.984375 "/></g></g></g><g fill="#ffffff" fill-opacity="1"><g transform="translate(33.276347, 13.840361)"><g><path d="M 0.875 0 L 0.875 -7.46875 L 3.453125 -7.46875 L 3.453125 -6.390625 L 3.484375 -6.390625 C 3.503906 -6.429688 3.535156 -6.476562 3.578125 -6.53125 C 3.617188 -6.59375 3.710938 -6.695312 3.859375 -6.84375 C 4.003906 -6.988281 4.160156 -7.117188 4.328125 -7.234375 C 4.492188 -7.347656 4.707031 -7.453125 4.96875 -7.546875 C 5.226562 -7.640625 5.492188 -7.6875 5.765625 -7.6875 C 6.046875 -7.6875 6.320312 -7.644531 6.59375 -7.5625 C 6.863281 -7.488281 7.0625 -7.414062 7.1875 -7.34375 L 7.390625 -7.21875 L 6.3125 -5.03125 C 6 -5.3125 5.554688 -5.453125 4.984375 -5.453125 C 4.671875 -5.453125 4.398438 -5.378906 4.171875 -5.234375 C 3.953125 -5.097656 3.796875 -4.929688 3.703125 -4.734375 C 3.609375 -4.546875 3.539062 -4.382812 3.5 -4.25 C 3.46875 -4.113281 3.453125 -4.007812 3.453125 -3.9375 L 3.453125 0 Z M 0.875 0 "/></g></g></g><g fill="#ffffff" fill-opacity="1"><g transform="translate(40.408617, 13.840361)"><g><path d="M 1.375 -0.921875 C 0.675781 -1.679688 0.328125 -2.613281 0.328125 -3.71875 C 0.328125 -4.832031 0.675781 -5.769531 1.375 -6.53125 C 2.082031 -7.300781 2.972656 -7.6875 4.046875 -7.6875 C 5.035156 -7.6875 5.851562 -7.375 6.5 -6.75 L 6.5 -7.46875 L 9.078125 -7.46875 L 9.078125 0 L 6.53125 0 L 6.53125 -0.84375 L 6.5 -0.84375 C 5.851562 -0.132812 5.035156 0.21875 4.046875 0.21875 C 2.972656 0.21875 2.082031 -0.160156 1.375 -0.921875 Z M 3.578125 -4.984375 C 3.242188 -4.660156 3.078125 -4.238281 3.078125 -3.71875 C 3.078125 -3.207031 3.234375 -2.789062 3.546875 -2.46875 C 3.867188 -2.144531 4.289062 -1.984375 4.8125 -1.984375 C 5.320312 -1.984375 5.738281 -2.144531 6.0625 -2.46875 C 6.382812 -2.800781 6.546875 -3.222656 6.546875 -3.734375 C 6.546875 -4.242188 6.378906 -4.660156 6.046875 -4.984375 C 5.710938 -5.316406 5.300781 -5.484375 4.8125 -5.484375 C 4.320312 -5.484375 3.910156 -5.316406 3.578125 -4.984375 Z M 3.578125 -4.984375 "/></g></g></g><g fill="#ffffff" fill-opacity="1"><g transform="translate(50.35018, 13.840361)"><g/></g></g><g fill="#ffffff" fill-opacity="1"><g transform="translate(54.323896, 13.840361)"><g><path d="M 0.875 -12.015625 L 5.25 -12.015625 C 6.476562 -12.015625 7.46875 -11.695312 8.21875 -11.0625 C 8.976562 -10.4375 9.359375 -9.519531 9.359375 -8.3125 C 9.359375 -7.113281 8.972656 -6.171875 8.203125 -5.484375 C 7.441406 -4.796875 6.457031 -4.453125 5.25 -4.453125 L 3.609375 -4.453125 L 3.609375 0 L 0.875 0 Z M 3.609375 -6.640625 L 4.390625 -6.640625 C 4.992188 -6.640625 5.492188 -6.765625 5.890625 -7.015625 C 6.285156 -7.265625 6.484375 -7.671875 6.484375 -8.234375 C 6.484375 -8.804688 6.285156 -9.210938 5.890625 -9.453125 C 5.492188 -9.703125 4.992188 -9.828125 4.390625 -9.828125 L 3.609375 -9.828125 Z M 3.609375 -6.640625 "/></g></g></g><g fill="#ffffff" fill-opacity="1"><g transform="translate(63.3191, 13.840361)"><g><path d="M 8.4375 -3.375 L 3.015625 -3.375 C 3.015625 -2.851562 3.179688 -2.460938 3.515625 -2.203125 C 3.859375 -1.953125 4.226562 -1.828125 4.625 -1.828125 C 5.039062 -1.828125 5.367188 -1.882812 5.609375 -2 C 5.859375 -2.113281 6.140625 -2.335938 6.453125 -2.671875 L 8.3125 -1.734375 C 7.539062 -0.429688 6.25 0.21875 4.4375 0.21875 C 3.3125 0.21875 2.34375 -0.164062 1.53125 -0.9375 C 0.726562 -1.707031 0.328125 -2.632812 0.328125 -3.71875 C 0.328125 -4.8125 0.726562 -5.742188 1.53125 -6.515625 C 2.34375 -7.296875 3.3125 -7.6875 4.4375 -7.6875 C 5.625 -7.6875 6.585938 -7.34375 7.328125 -6.65625 C 8.078125 -5.976562 8.453125 -5.003906 8.453125 -3.734375 C 8.453125 -3.554688 8.445312 -3.4375 8.4375 -3.375 Z M 3.09375 -4.8125 L 5.921875 -4.8125 C 5.867188 -5.195312 5.71875 -5.492188 5.46875 -5.703125 C 5.21875 -5.910156 4.898438 -6.015625 4.515625 -6.015625 C 4.085938 -6.015625 3.742188 -5.898438 3.484375 -5.671875 C 3.234375 -5.453125 3.101562 -5.164062 3.09375 -4.8125 Z M 3.09375 -4.8125 "/></g></g></g><g fill="#ffffff" fill-opacity="1"><g transform="translate(72.023399, 13.840361)"><g><path d="M 1.3125 -7.46875 L 1.3125 -10.25 L 3.890625 -10.25 L 3.890625 -7.46875 L 5.46875 -7.46875 L 5.46875 -5.5 L 3.890625 -5.5 L 3.890625 -3.125 C 3.890625 -2.4375 4.082031 -2.09375 4.46875 -2.09375 C 4.5625 -2.09375 4.660156 -2.113281 4.765625 -2.15625 C 4.878906 -2.195312 4.96875 -2.234375 5.03125 -2.265625 L 5.109375 -2.328125 L 5.75 -0.25 C 5.195312 0.0625 4.566406 0.21875 3.859375 0.21875 C 3.367188 0.21875 2.945312 0.132812 2.59375 -0.03125 C 2.25 -0.207031 1.988281 -0.4375 1.8125 -0.71875 C 1.632812 -1.007812 1.503906 -1.3125 1.421875 -1.625 C 1.347656 -1.9375 1.3125 -2.273438 1.3125 -2.640625 L 1.3125 -5.5 L 0.234375 -5.5 L 0.234375 -7.46875 Z M 1.3125 -7.46875 "/></g></g></g><g fill="#ffffff" fill-opacity="1"><g transform="translate(77.77291, 13.840361)"><g/></g></g><g fill="#ffffff" fill-opacity="1"><g transform="translate(81.28069, 13.840361)"><g><path d="M 7.265625 -2.46875 C 7.679688 -2.46875 8.085938 -2.53125 8.484375 -2.65625 C 8.878906 -2.789062 9.164062 -2.914062 9.34375 -3.03125 L 9.625 -3.21875 L 10.796875 -0.890625 C 10.753906 -0.859375 10.695312 -0.816406 10.625 -0.765625 C 10.5625 -0.722656 10.40625 -0.632812 10.15625 -0.5 C 9.90625 -0.375 9.640625 -0.257812 9.359375 -0.15625 C 9.078125 -0.0625 8.707031 0.0195312 8.25 0.09375 C 7.800781 0.175781 7.332031 0.21875 6.84375 0.21875 C 5.726562 0.21875 4.671875 -0.0507812 3.671875 -0.59375 C 2.671875 -1.144531 1.863281 -1.898438 1.25 -2.859375 C 0.632812 -3.828125 0.328125 -4.867188 0.328125 -5.984375 C 0.328125 -6.828125 0.503906 -7.632812 0.859375 -8.40625 C 1.222656 -9.1875 1.703125 -9.851562 2.296875 -10.40625 C 2.898438 -10.96875 3.597656 -11.410156 4.390625 -11.734375 C 5.191406 -12.066406 6.007812 -12.234375 6.84375 -12.234375 C 7.625 -12.234375 8.335938 -12.140625 8.984375 -11.953125 C 9.640625 -11.765625 10.109375 -11.582031 10.390625 -11.40625 L 10.796875 -11.125 L 9.625 -8.796875 C 9.5625 -8.859375 9.457031 -8.925781 9.3125 -9 C 9.175781 -9.082031 8.90625 -9.191406 8.5 -9.328125 C 8.09375 -9.460938 7.679688 -9.53125 7.265625 -9.53125 C 6.609375 -9.53125 6.015625 -9.421875 5.484375 -9.203125 C 4.960938 -8.992188 4.546875 -8.710938 4.234375 -8.359375 C 3.929688 -8.015625 3.703125 -7.640625 3.546875 -7.234375 C 3.390625 -6.835938 3.3125 -6.429688 3.3125 -6.015625 C 3.3125 -5.097656 3.648438 -4.273438 4.328125 -3.546875 C 5.015625 -2.828125 5.992188 -2.46875 7.265625 -2.46875 Z M 7.265625 -2.46875 "/></g></g></g><g fill="#ffffff" fill-opacity="1"><g transform="translate(92.241159, 13.840361)"><g><path d="M 1.375 -0.921875 C 0.675781 -1.679688 0.328125 -2.613281 0.328125 -3.71875 C 0.328125 -4.832031 0.675781 -5.769531 1.375 -6.53125 C 2.082031 -7.300781 2.972656 -7.6875 4.046875 -7.6875 C 5.035156 -7.6875 5.851562 -7.375 6.5 -6.75 L 6.5 -7.46875 L 9.078125 -7.46875 L 9.078125 0 L 6.53125 0 L 6.53125 -0.84375 L 6.5 -0.84375 C 5.851562 -0.132812 5.035156 0.21875 4.046875 0.21875 C 2.972656 0.21875 2.082031 -0.160156 1.375 -0.921875 Z M 3.578125 -4.984375 C 3.242188 -4.660156 3.078125 -4.238281 3.078125 -3.71875 C 3.078125 -3.207031 3.234375 -2.789062 3.546875 -2.46875 C 3.867188 -2.144531 4.289062 -1.984375 4.8125 -1.984375 C 5.320312 -1.984375 5.738281 -2.144531 6.0625 -2.46875 C 6.382812 -2.800781 6.546875 -3.222656 6.546875 -3.734375 C 6.546875 -4.242188 6.378906 -4.660156 6.046875 -4.984375 C 5.710938 -5.316406 5.300781 -5.484375 4.8125 -5.484375 C 4.320312 -5.484375 3.910156 -5.316406 3.578125 -4.984375 Z M 3.578125 -4.984375 "/></g></g></g><g fill="#ffffff" fill-opacity="1"><g transform="translate(102.182722, 13.840361)"><g><path d="M 0.875 0 L 0.875 -7.46875 L 3.453125 -7.46875 L 3.453125 -6.390625 L 3.484375 -6.390625 C 3.503906 -6.429688 3.535156 -6.476562 3.578125 -6.53125 C 3.617188 -6.59375 3.710938 -6.695312 3.859375 -6.84375 C 4.003906 -6.988281 4.160156 -7.117188 4.328125 -7.234375 C 4.492188 -7.347656 4.707031 -7.453125 4.96875 -7.546875 C 5.226562 -7.640625 5.492188 -7.6875 5.765625 -7.6875 C 6.046875 -7.6875 6.320312 -7.644531 6.59375 -7.5625 C 6.863281 -7.488281 7.0625 -7.414062 7.1875 -7.34375 L 7.390625 -7.21875 L 6.3125 -5.03125 C 6 -5.3125 5.554688 -5.453125 4.984375 -5.453125 C 4.671875 -5.453125 4.398438 -5.378906 4.171875 -5.234375 C 3.953125 -5.097656 3.796875 -4.929688 3.703125 -4.734375 C 3.609375 -4.546875 3.539062 -4.382812 3.5 -4.25 C 3.46875 -4.113281 3.453125 -4.007812 3.453125 -3.9375 L 3.453125 0 Z M 0.875 0 "/></g></g></g><g fill="#ffffff" fill-opacity="1"><g transform="translate(109.344117, 13.840361)"><g><path d="M 8.4375 -3.375 L 3.015625 -3.375 C 3.015625 -2.851562 3.179688 -2.460938 3.515625 -2.203125 C 3.859375 -1.953125 4.226562 -1.828125 4.625 -1.828125 C 5.039062 -1.828125 5.367188 -1.882812 5.609375 -2 C 5.859375 -2.113281 6.140625 -2.335938 6.453125 -2.671875 L 8.3125 -1.734375 C 7.539062 -0.429688 6.25 0.21875 4.4375 0.21875 C 3.3125 0.21875 2.34375 -0.164062 1.53125 -0.9375 C 0.726562 -1.707031 0.328125 -2.632812 0.328125 -3.71875 C 0.328125 -4.8125 0.726562 -5.742188 1.53125 -6.515625 C 2.34375 -7.296875 3.3125 -7.6875 4.4375 -7.6875 C 5.625 -7.6875 6.585938 -7.34375 7.328125 -6.65625 C 8.078125 -5.976562 8.453125 -5.003906 8.453125 -3.734375 C 8.453125 -3.554688 8.445312 -3.4375 8.4375 -3.375 Z M 3.09375 -4.8125 L 5.921875 -4.8125 C 5.867188 -5.195312 5.71875 -5.492188 5.46875 -5.703125 C 5.21875 -5.910156 4.898438 -6.015625 4.515625 -6.015625 C 4.085938 -6.015625 3.742188 -5.898438 3.484375 -5.671875 C 3.234375 -5.453125 3.101562 -5.164062 3.09375 -4.8125 Z M 3.09375 -4.8125 "/></g></g></g></g></g><g transform="matrix(1, 0, 0, 1, 32, 25)"><g clip-path="url(#201fc14f5e)"><g fill="#ffffff" fill-opacity="1"><g transform="translate(1.329301, 8.241967)"><g><path d="M 5.265625 0.09375 L 4.4375 -0.765625 C 3.925781 -0.222656 3.257812 0.046875 2.4375 0.046875 C 2.039062 0.046875 1.691406 -0.015625 1.390625 -0.140625 C 1.085938 -0.265625 0.847656 -0.441406 0.671875 -0.671875 C 0.503906 -0.910156 0.421875 -1.175781 0.421875 -1.46875 C 0.421875 -1.832031 0.535156 -2.15625 0.765625 -2.4375 C 0.992188 -2.726562 1.378906 -3.03125 1.921875 -3.34375 C 1.640625 -3.632812 1.441406 -3.882812 1.328125 -4.09375 C 1.222656 -4.300781 1.171875 -4.523438 1.171875 -4.765625 C 1.171875 -5.140625 1.304688 -5.441406 1.578125 -5.671875 C 1.859375 -5.910156 2.226562 -6.03125 2.6875 -6.03125 C 3.113281 -6.03125 3.453125 -5.925781 3.703125 -5.71875 C 3.953125 -5.507812 4.078125 -5.21875 4.078125 -4.84375 C 4.078125 -4.550781 3.976562 -4.285156 3.78125 -4.046875 C 3.582031 -3.804688 3.238281 -3.546875 2.75 -3.265625 L 4.390625 -1.5625 C 4.578125 -1.894531 4.710938 -2.28125 4.796875 -2.71875 L 5.296875 -2.5625 C 5.179688 -2.03125 5.003906 -1.570312 4.765625 -1.1875 L 5.609375 -0.3125 Z M 2.6875 -5.578125 C 2.394531 -5.578125 2.160156 -5.503906 1.984375 -5.359375 C 1.816406 -5.210938 1.734375 -5.015625 1.734375 -4.765625 C 1.734375 -4.585938 1.78125 -4.421875 1.875 -4.265625 C 1.96875 -4.109375 2.148438 -3.890625 2.421875 -3.609375 C 2.847656 -3.859375 3.144531 -4.070312 3.3125 -4.25 C 3.476562 -4.425781 3.5625 -4.625 3.5625 -4.84375 C 3.5625 -5.070312 3.484375 -5.25 3.328125 -5.375 C 3.171875 -5.507812 2.957031 -5.578125 2.6875 -5.578125 Z M 2.46875 -0.453125 C 3.125 -0.453125 3.660156 -0.675781 4.078125 -1.125 L 2.265625 -2.984375 C 1.796875 -2.710938 1.46875 -2.46875 1.28125 -2.25 C 1.101562 -2.039062 1.015625 -1.800781 1.015625 -1.53125 C 1.015625 -1.207031 1.144531 -0.945312 1.40625 -0.75 C 1.675781 -0.550781 2.03125 -0.453125 2.46875 -0.453125 Z M 2.46875 -0.453125 "/></g></g></g><g fill="#ffffff" fill-opacity="1"><g transform="translate(9.043771, 8.241967)"><g/></g></g><g fill="#ffffff" fill-opacity="1"><g transform="translate(13.273453, 8.241967)"><g><path d="M 5.203125 -3 L 5.8125 -3 L 5.8125 -0.703125 C 5.53125 -0.460938 5.195312 -0.273438 4.8125 -0.140625 C 4.425781 -0.015625 4.023438 0.046875 3.609375 0.046875 C 3.003906 0.046875 2.460938 -0.0820312 1.984375 -0.34375 C 1.503906 -0.601562 1.125 -0.960938 0.84375 -1.421875 C 0.570312 -1.890625 0.4375 -2.414062 0.4375 -3 C 0.4375 -3.570312 0.570312 -4.085938 0.84375 -4.546875 C 1.125 -5.015625 1.503906 -5.378906 1.984375 -5.640625 C 2.460938 -5.910156 3.003906 -6.046875 3.609375 -6.046875 C 4.066406 -6.046875 4.488281 -5.972656 4.875 -5.828125 C 5.257812 -5.679688 5.582031 -5.46875 5.84375 -5.1875 L 5.453125 -4.78125 C 4.972656 -5.25 4.367188 -5.484375 3.640625 -5.484375 C 3.148438 -5.484375 2.707031 -5.375 2.3125 -5.15625 C 1.925781 -4.945312 1.625 -4.648438 1.40625 -4.265625 C 1.1875 -3.890625 1.078125 -3.46875 1.078125 -3 C 1.078125 -2.53125 1.1875 -2.109375 1.40625 -1.734375 C 1.625 -1.359375 1.925781 -1.0625 2.3125 -0.84375 C 2.707031 -0.625 3.144531 -0.515625 3.625 -0.515625 C 4.25 -0.515625 4.773438 -0.664062 5.203125 -0.96875 Z M 5.203125 -3 "/></g></g></g><g fill="#ffffff" fill-opacity="1"><g transform="translate(21.87838, 8.241967)"><g><path d="M 1.4375 -3.625 C 1.570312 -3.925781 1.78125 -4.148438 2.0625 -4.296875 C 2.34375 -4.453125 2.691406 -4.53125 3.109375 -4.53125 L 3.109375 -3.953125 L 2.96875 -3.953125 C 2.5 -3.953125 2.128906 -3.804688 1.859375 -3.515625 C 1.585938 -3.222656 1.453125 -2.816406 1.453125 -2.296875 L 1.453125 0 L 0.84375 0 L 0.84375 -4.5 L 1.4375 -4.5 Z M 1.4375 -3.625 "/></g></g></g><g fill="#ffffff" fill-opacity="1"><g transform="translate(27.186879, 8.241967)"><g><path d="M 2.6875 0.046875 C 2.25 0.046875 1.859375 -0.0507812 1.515625 -0.25 C 1.171875 -0.445312 0.894531 -0.71875 0.6875 -1.0625 C 0.488281 -1.414062 0.390625 -1.8125 0.390625 -2.25 C 0.390625 -2.6875 0.488281 -3.078125 0.6875 -3.421875 C 0.894531 -3.773438 1.171875 -4.046875 1.515625 -4.234375 C 1.859375 -4.429688 2.25 -4.53125 2.6875 -4.53125 C 3.125 -4.53125 3.515625 -4.429688 3.859375 -4.234375 C 4.210938 -4.046875 4.484375 -3.773438 4.671875 -3.421875 C 4.867188 -3.078125 4.96875 -2.6875 4.96875 -2.25 C 4.96875 -1.8125 4.867188 -1.414062 4.671875 -1.0625 C 4.484375 -0.71875 4.210938 -0.445312 3.859375 -0.25 C 3.515625 -0.0507812 3.125 0.046875 2.6875 0.046875 Z M 2.6875 -0.5 C 3.007812 -0.5 3.296875 -0.570312 3.546875 -0.71875 C 3.804688 -0.863281 4.003906 -1.066406 4.140625 -1.328125 C 4.285156 -1.597656 4.359375 -1.90625 4.359375 -2.25 C 4.359375 -2.59375 4.285156 -2.898438 4.140625 -3.171875 C 4.003906 -3.441406 3.804688 -3.644531 3.546875 -3.78125 C 3.296875 -3.925781 3.007812 -4 2.6875 -4 C 2.363281 -4 2.078125 -3.925781 1.828125 -3.78125 C 1.578125 -3.644531 1.378906 -3.441406 1.234375 -3.171875 C 1.085938 -2.898438 1.015625 -2.59375 1.015625 -2.25 C 1.015625 -1.90625 1.085938 -1.597656 1.234375 -1.328125 C 1.378906 -1.066406 1.578125 -0.863281 1.828125 -0.71875 C 2.078125 -0.570312 2.363281 -0.5 2.6875 -0.5 Z M 2.6875 -0.5 "/></g></g></g><g fill="#ffffff" fill-opacity="1"><g transform="translate(34.541733, 8.241967)"><g><path d="M 2.6875 0.046875 C 2.25 0.046875 1.859375 -0.0507812 1.515625 -0.25 C 1.171875 -0.445312 0.894531 -0.71875 0.6875 -1.0625 C 0.488281 -1.414062 0.390625 -1.8125 0.390625 -2.25 C 0.390625 -2.6875 0.488281 -3.078125 0.6875 -3.421875 C 0.894531 -3.773438 1.171875 -4.046875 1.515625 -4.234375 C 1.859375 -4.429688 2.25 -4.53125 2.6875 -4.53125 C 3.125 -4.53125 3.515625 -4.429688 3.859375 -4.234375 C 4.210938 -4.046875 4.484375 -3.773438 4.671875 -3.421875 C 4.867188 -3.078125 4.96875 -2.6875 4.96875 -2.25 C 4.96875 -1.8125 4.867188 -1.414062 4.671875 -1.0625 C 4.484375 -0.71875 4.210938 -0.445312 3.859375 -0.25 C 3.515625 -0.0507812 3.125 0.046875 2.6875 0.046875 Z M 2.6875 -0.5 C 3.007812 -0.5 3.296875 -0.570312 3.546875 -0.71875 C 3.804688 -0.863281 4.003906 -1.066406 4.140625 -1.328125 C 4.285156 -1.597656 4.359375 -1.90625 4.359375 -2.25 C 4.359375 -2.59375 4.285156 -2.898438 4.140625 -3.171875 C 4.003906 -3.441406 3.804688 -3.644531 3.546875 -3.78125 C 3.296875 -3.925781 3.007812 -4 2.6875 -4 C 2.363281 -4 2.078125 -3.925781 1.828125 -3.78125 C 1.578125 -3.644531 1.378906 -3.441406 1.234375 -3.171875 C 1.085938 -2.898438 1.015625 -2.59375 1.015625 -2.25 C 1.015625 -1.90625 1.085938 -1.597656 1.234375 -1.328125 C 1.378906 -1.066406 1.578125 -0.863281 1.828125 -0.71875 C 2.078125 -0.570312 2.363281 -0.5 2.6875 -0.5 Z M 2.6875 -0.5 "/></g></g></g><g fill="#ffffff" fill-opacity="1"><g transform="translate(41.896587, 8.241967)"><g><path d="M 6.46875 -4.53125 C 7.03125 -4.53125 7.472656 -4.367188 7.796875 -4.046875 C 8.117188 -3.722656 8.28125 -3.242188 8.28125 -2.609375 L 8.28125 0 L 7.671875 0 L 7.671875 -2.546875 C 7.671875 -3.015625 7.554688 -3.367188 7.328125 -3.609375 C 7.109375 -3.859375 6.789062 -3.984375 6.375 -3.984375 C 5.90625 -3.984375 5.535156 -3.835938 5.265625 -3.546875 C 5.003906 -3.265625 4.875 -2.867188 4.875 -2.359375 L 4.875 0 L 4.265625 0 L 4.265625 -2.546875 C 4.265625 -3.015625 4.148438 -3.367188 3.921875 -3.609375 C 3.703125 -3.859375 3.382812 -3.984375 2.96875 -3.984375 C 2.5 -3.984375 2.128906 -3.835938 1.859375 -3.546875 C 1.585938 -3.265625 1.453125 -2.867188 1.453125 -2.359375 L 1.453125 0 L 0.84375 0 L 0.84375 -4.5 L 1.4375 -4.5 L 1.4375 -3.6875 C 1.59375 -3.957031 1.8125 -4.164062 2.09375 -4.3125 C 2.382812 -4.457031 2.710938 -4.53125 3.078125 -4.53125 C 3.453125 -4.53125 3.78125 -4.453125 4.0625 -4.296875 C 4.34375 -4.140625 4.550781 -3.90625 4.6875 -3.59375 C 4.851562 -3.882812 5.085938 -4.113281 5.390625 -4.28125 C 5.703125 -4.445312 6.0625 -4.53125 6.46875 -4.53125 Z M 6.46875 -4.53125 "/></g></g></g><g fill="#ffffff" fill-opacity="1"><g transform="translate(52.967409, 8.241967)"><g><path d="M 0.84375 -4.5 L 1.453125 -4.5 L 1.453125 0 L 0.84375 0 Z M 1.15625 -5.484375 C 1.03125 -5.484375 0.921875 -5.523438 0.828125 -5.609375 C 0.742188 -5.703125 0.703125 -5.804688 0.703125 -5.921875 C 0.703125 -6.035156 0.742188 -6.132812 0.828125 -6.21875 C 0.921875 -6.3125 1.03125 -6.359375 1.15625 -6.359375 C 1.28125 -6.359375 1.382812 -6.316406 1.46875 -6.234375 C 1.550781 -6.148438 1.59375 -6.050781 1.59375 -5.9375 C 1.59375 -5.8125 1.550781 -5.703125 1.46875 -5.609375 C 1.382812 -5.523438 1.28125 -5.484375 1.15625 -5.484375 Z M 1.15625 -5.484375 "/></g></g></g><g fill="#ffffff" fill-opacity="1"><g transform="translate(57.257025, 8.241967)"><g><path d="M 3.140625 -4.53125 C 3.703125 -4.53125 4.148438 -4.363281 4.484375 -4.03125 C 4.816406 -3.707031 4.984375 -3.234375 4.984375 -2.609375 L 4.984375 0 L 4.390625 0 L 4.390625 -2.546875 C 4.390625 -3.015625 4.269531 -3.367188 4.03125 -3.609375 C 3.800781 -3.859375 3.46875 -3.984375 3.03125 -3.984375 C 2.539062 -3.984375 2.15625 -3.835938 1.875 -3.546875 C 1.59375 -3.265625 1.453125 -2.867188 1.453125 -2.359375 L 1.453125 0 L 0.84375 0 L 0.84375 -4.5 L 1.4375 -4.5 L 1.4375 -3.671875 C 1.59375 -3.941406 1.816406 -4.148438 2.109375 -4.296875 C 2.410156 -4.453125 2.753906 -4.53125 3.140625 -4.53125 Z M 3.140625 -4.53125 "/></g></g></g><g fill="#ffffff" fill-opacity="1"><g transform="translate(65.057113, 8.241967)"><g><path d="M 5.015625 -4.5 L 5.015625 -0.546875 C 5.015625 0.210938 4.828125 0.773438 4.453125 1.140625 C 4.078125 1.515625 3.515625 1.703125 2.765625 1.703125 C 2.347656 1.703125 1.953125 1.640625 1.578125 1.515625 C 1.203125 1.390625 0.898438 1.222656 0.671875 1.015625 L 0.96875 0.546875 C 1.1875 0.742188 1.453125 0.894531 1.765625 1 C 2.078125 1.113281 2.40625 1.171875 2.75 1.171875 C 3.320312 1.171875 3.738281 1.035156 4 0.765625 C 4.269531 0.503906 4.40625 0.09375 4.40625 -0.46875 L 4.40625 -1.046875 C 4.21875 -0.753906 3.972656 -0.535156 3.671875 -0.390625 C 3.367188 -0.242188 3.03125 -0.171875 2.65625 -0.171875 C 2.226562 -0.171875 1.84375 -0.265625 1.5 -0.453125 C 1.15625 -0.640625 0.882812 -0.898438 0.6875 -1.234375 C 0.488281 -1.566406 0.390625 -1.941406 0.390625 -2.359375 C 0.390625 -2.785156 0.488281 -3.160156 0.6875 -3.484375 C 0.882812 -3.816406 1.15625 -4.070312 1.5 -4.25 C 1.84375 -4.4375 2.226562 -4.53125 2.65625 -4.53125 C 3.039062 -4.53125 3.382812 -4.453125 3.6875 -4.296875 C 4 -4.148438 4.25 -3.929688 4.4375 -3.640625 L 4.4375 -4.5 Z M 2.71875 -0.703125 C 3.039062 -0.703125 3.332031 -0.769531 3.59375 -0.90625 C 3.851562 -1.050781 4.054688 -1.25 4.203125 -1.5 C 4.347656 -1.757812 4.421875 -2.046875 4.421875 -2.359375 C 4.421875 -2.679688 4.347656 -2.96875 4.203125 -3.21875 C 4.054688 -3.46875 3.851562 -3.660156 3.59375 -3.796875 C 3.34375 -3.929688 3.050781 -4 2.71875 -4 C 2.382812 -4 2.085938 -3.929688 1.828125 -3.796875 C 1.578125 -3.660156 1.378906 -3.46875 1.234375 -3.21875 C 1.085938 -2.96875 1.015625 -2.679688 1.015625 -2.359375 C 1.015625 -2.046875 1.085938 -1.757812 1.234375 -1.5 C 1.378906 -1.25 1.578125 -1.050781 1.828125 -0.90625 C 2.085938 -0.769531 2.382812 -0.703125 2.71875 -0.703125 Z M 2.71875 -0.703125 "/></g></g></g><g fill="#ffffff" fill-opacity="1"><g transform="translate(72.917134, 8.241967)"><g/></g></g><g fill="#ffffff" fill-opacity="1"><g transform="translate(77.146817, 8.241967)"><g><path d="M 3.578125 0.046875 C 2.984375 0.046875 2.445312 -0.0820312 1.96875 -0.34375 C 1.5 -0.601562 1.125 -0.960938 0.84375 -1.421875 C 0.570312 -1.890625 0.4375 -2.414062 0.4375 -3 C 0.4375 -3.570312 0.570312 -4.085938 0.84375 -4.546875 C 1.125 -5.015625 1.503906 -5.378906 1.984375 -5.640625 C 2.460938 -5.910156 3 -6.046875 3.59375 -6.046875 C 4.03125 -6.046875 4.4375 -5.96875 4.8125 -5.8125 C 5.195312 -5.664062 5.519531 -5.453125 5.78125 -5.171875 L 5.375 -4.765625 C 4.90625 -5.242188 4.316406 -5.484375 3.609375 -5.484375 C 3.128906 -5.484375 2.695312 -5.375 2.3125 -5.15625 C 1.925781 -4.9375 1.625 -4.640625 1.40625 -4.265625 C 1.1875 -3.890625 1.078125 -3.46875 1.078125 -3 C 1.078125 -2.53125 1.1875 -2.109375 1.40625 -1.734375 C 1.625 -1.359375 1.925781 -1.0625 2.3125 -0.84375 C 2.695312 -0.625 3.128906 -0.515625 3.609375 -0.515625 C 4.328125 -0.515625 4.914062 -0.753906 5.375 -1.234375 L 5.78125 -0.828125 C 5.519531 -0.546875 5.195312 -0.328125 4.8125 -0.171875 C 4.4375 -0.0234375 4.023438 0.046875 3.578125 0.046875 Z M 3.578125 0.046875 "/></g></g></g><g fill="#ffffff" fill-opacity="1"><g transform="translate(85.092467, 8.241967)"><g><path d="M 4.765625 -2.0625 L 1 -2.0625 C 1.03125 -1.59375 1.207031 -1.210938 1.53125 -0.921875 C 1.863281 -0.640625 2.28125 -0.5 2.78125 -0.5 C 3.050781 -0.5 3.300781 -0.546875 3.53125 -0.640625 C 3.769531 -0.742188 3.976562 -0.894531 4.15625 -1.09375 L 4.5 -0.6875 C 4.300781 -0.445312 4.050781 -0.265625 3.75 -0.140625 C 3.445312 -0.015625 3.113281 0.046875 2.75 0.046875 C 2.289062 0.046875 1.882812 -0.0507812 1.53125 -0.25 C 1.175781 -0.445312 0.894531 -0.71875 0.6875 -1.0625 C 0.488281 -1.414062 0.390625 -1.8125 0.390625 -2.25 C 0.390625 -2.6875 0.484375 -3.078125 0.671875 -3.421875 C 0.867188 -3.773438 1.132812 -4.046875 1.46875 -4.234375 C 1.800781 -4.429688 2.175781 -4.53125 2.59375 -4.53125 C 3.007812 -4.53125 3.382812 -4.429688 3.71875 -4.234375 C 4.050781 -4.046875 4.3125 -3.78125 4.5 -3.4375 C 4.6875 -3.09375 4.78125 -2.695312 4.78125 -2.25 Z M 2.59375 -4.015625 C 2.15625 -4.015625 1.789062 -3.875 1.5 -3.59375 C 1.207031 -3.320312 1.039062 -2.960938 1 -2.515625 L 4.203125 -2.515625 C 4.160156 -2.960938 3.988281 -3.320312 3.6875 -3.59375 C 3.394531 -3.875 3.03125 -4.015625 2.59375 -4.015625 Z M 2.59375 -4.015625 "/></g></g></g><g fill="#ffffff" fill-opacity="1"><g transform="translate(92.250392, 8.241967)"><g><path d="M 3.140625 -4.53125 C 3.703125 -4.53125 4.148438 -4.363281 4.484375 -4.03125 C 4.816406 -3.707031 4.984375 -3.234375 4.984375 -2.609375 L 4.984375 0 L 4.390625 0 L 4.390625 -2.546875 C 4.390625 -3.015625 4.269531 -3.367188 4.03125 -3.609375 C 3.800781 -3.859375 3.46875 -3.984375 3.03125 -3.984375 C 2.539062 -3.984375 2.15625 -3.835938 1.875 -3.546875 C 1.59375 -3.265625 1.453125 -2.867188 1.453125 -2.359375 L 1.453125 0 L 0.84375 0 L 0.84375 -4.5 L 1.4375 -4.5 L 1.4375 -3.671875 C 1.59375 -3.941406 1.816406 -4.148438 2.109375 -4.296875 C 2.410156 -4.453125 2.753906 -4.53125 3.140625 -4.53125 Z M 3.140625 -4.53125 "/></g></g></g><g fill="#ffffff" fill-opacity="1"><g transform="translate(100.033354, 8.241967)"><g><path d="M 3.21875 -0.28125 C 3.101562 -0.175781 2.960938 -0.09375 2.796875 -0.03125 C 2.628906 0.0195312 2.453125 0.046875 2.265625 0.046875 C 1.847656 0.046875 1.523438 -0.0664062 1.296875 -0.296875 C 1.066406 -0.523438 0.953125 -0.847656 0.953125 -1.265625 L 0.953125 -3.984375 L 0.140625 -3.984375 L 0.140625 -4.5 L 0.953125 -4.5 L 0.953125 -5.484375 L 1.5625 -5.484375 L 1.5625 -4.5 L 2.921875 -4.5 L 2.921875 -3.984375 L 1.5625 -3.984375 L 1.5625 -1.296875 C 1.5625 -1.035156 1.625 -0.832031 1.75 -0.6875 C 1.882812 -0.550781 2.082031 -0.484375 2.34375 -0.484375 C 2.46875 -0.484375 2.585938 -0.5 2.703125 -0.53125 C 2.816406 -0.570312 2.914062 -0.628906 3 -0.703125 Z M 3.21875 -0.28125 "/></g></g></g><g fill="#ffffff" fill-opacity="1"><g transform="translate(105.333307, 8.241967)"><g><path d="M 4.765625 -2.0625 L 1 -2.0625 C 1.03125 -1.59375 1.207031 -1.210938 1.53125 -0.921875 C 1.863281 -0.640625 2.28125 -0.5 2.78125 -0.5 C 3.050781 -0.5 3.300781 -0.546875 3.53125 -0.640625 C 3.769531 -0.742188 3.976562 -0.894531 4.15625 -1.09375 L 4.5 -0.6875 C 4.300781 -0.445312 4.050781 -0.265625 3.75 -0.140625 C 3.445312 -0.015625 3.113281 0.046875 2.75 0.046875 C 2.289062 0.046875 1.882812 -0.0507812 1.53125 -0.25 C 1.175781 -0.445312 0.894531 -0.71875 0.6875 -1.0625 C 0.488281 -1.414062 0.390625 -1.8125 0.390625 -2.25 C 0.390625 -2.6875 0.484375 -3.078125 0.671875 -3.421875 C 0.867188 -3.773438 1.132812 -4.046875 1.46875 -4.234375 C 1.800781 -4.429688 2.175781 -4.53125 2.59375 -4.53125 C 3.007812 -4.53125 3.382812 -4.429688 3.71875 -4.234375 C 4.050781 -4.046875 4.3125 -3.78125 4.5 -3.4375 C 4.6875 -3.09375 4.78125 -2.695312 4.78125 -2.25 Z M 2.59375 -4.015625 C 2.15625 -4.015625 1.789062 -3.875 1.5 -3.59375 C 1.207031 -3.320312 1.039062 -2.960938 1 -2.515625 L 4.203125 -2.515625 C 4.160156 -2.960938 3.988281 -3.320312 3.6875 -3.59375 C 3.394531 -3.875 3.03125 -4.015625 2.59375 -4.015625 Z M 2.59375 -4.015625 "/></g></g></g><g fill="#ffffff" fill-opacity="1"><g transform="translate(112.491232, 8.241967)"><g><path d="M 1.4375 -3.625 C 1.570312 -3.925781 1.78125 -4.148438 2.0625 -4.296875 C 2.34375 -4.453125 2.691406 -4.53125 3.109375 -4.53125 L 3.109375 -3.953125 L 2.96875 -3.953125 C 2.5 -3.953125 2.128906 -3.804688 1.859375 -3.515625 C 1.585938 -3.222656 1.453125 -2.816406 1.453125 -2.296875 L 1.453125 0 L 0.84375 0 L 0.84375 -4.5 L 1.4375 -4.5 Z M 1.4375 -3.625 "/></g></g></g></g></g></svg>